<?xml version="1.0" encoding="utf-8"?>
<!-- Generator: Adobe Illustrator 24.3.0, SVG Export Plug-In . SVG Version: 6.00 Build 0)  -->
<svg version="1.1" id="Artwork" xmlns="http://www.w3.org/2000/svg" xmlns:xlink="http://www.w3.org/1999/xlink" x="0px" y="0px"
	 width="124.096px" height="26.777px" viewBox="0 0 124.096 26.777" style="enable-background:new 0 0 124.096 26.777;"
	 xml:space="preserve">
<style type="text/css">
	.st0{fill:#FFFFFF;}
	.st1{fill-rule:evenodd;clip-rule:evenodd;fill:url(#SVGID_1_);}
	.st2{fill-rule:evenodd;clip-rule:evenodd;fill:#FFFFFF;}
</style>
<g>
	<g id="XMLID_77_">
		<path id="XMLID_104_" class="st0" d="M38.167,20.421H33.43l-1.137,3.359h-2.007l4.487-12.428h2.084l4.487,12.428h-2.041
			L38.167,20.421z M33.921,18.87h3.755l-1.852-5.451h-0.052L33.921,18.87z"/>
		<path id="XMLID_101_" class="st0" d="M51.026,19.249c0,2.817-1.507,4.626-3.781,4.626c-1.292,0-2.317-0.578-2.851-1.585h-0.043
			v4.487h-1.86V14.719h1.8v1.508h0.034c0.517-0.974,1.619-1.602,2.885-1.602C49.51,14.625,51.026,16.442,51.026,19.249z
			 M49.114,19.249c0-1.834-0.947-3.04-2.394-3.04c-1.421,0-2.377,1.231-2.377,3.04c0,1.826,0.956,3.049,2.377,3.049
			C48.166,22.298,49.114,21.102,49.114,19.249z"/>
		<path id="XMLID_98_" class="st0" d="M60.991,19.249c0,2.817-1.507,4.626-3.781,4.626c-1.292,0-2.317-0.578-2.851-1.585h-0.043
			v4.487h-1.86V14.719h1.8v1.508h0.034c0.517-0.974,1.619-1.602,2.885-1.602C59.475,14.625,60.991,16.442,60.991,19.249z
			 M59.079,19.249c0-1.834-0.947-3.04-2.394-3.04c-1.421,0-2.377,1.231-2.377,3.04c0,1.826,0.956,3.049,2.377,3.049
			C58.131,22.298,59.079,21.102,59.079,19.249z"/>
		<path id="XMLID_96_" class="st0" d="M62.489,11.352h1.86V23.78h-1.86V11.352z"/>
		<path id="XMLID_93_" class="st0" d="M74.03,21.119c-0.25,1.644-1.852,2.773-3.902,2.773c-2.635,0-4.272-1.766-4.272-4.599
			c0-2.842,1.645-4.685,4.194-4.685c2.506,0,4.082,1.723,4.082,4.469v0.637h-6.399v0.113c0,1.55,0.973,2.567,2.437,2.567
			c1.034,0,1.843-0.492,2.093-1.275H74.03z M67.743,18.414h4.53c-0.043-1.387-0.93-2.3-2.222-2.3
			C68.768,16.114,67.838,17.044,67.743,18.414z"/>
		<path id="XMLID_91_" class="st0" d="M90.179,23.78v-9.147h-0.06l-3.747,9.053h-1.43l-3.755-9.053h-0.06v9.147H79.37V11.352h2.23
			l4.023,9.809h0.069l4.014-9.809h2.239V23.78H90.179z"/>
		<path id="XMLID_89_" class="st0" d="M101.851,23.78h-1.782v-1.558h-0.044c-0.517,1.085-1.421,1.662-2.808,1.662
			c-1.972,0-3.178-1.275-3.178-3.35v-5.814h1.86v5.452c0,1.378,0.655,2.11,1.937,2.11c1.344,0,2.153-0.93,2.153-2.343v-5.219h1.86
			V23.78z"/>
		<path id="XMLID_87_" class="st0" d="M107.141,14.616c2.006,0,3.445,1.112,3.488,2.714h-1.748
			c-0.078-0.802-0.758-1.292-1.791-1.292c-1.008,0-1.68,0.465-1.68,1.171c0,0.542,0.448,0.904,1.387,1.137l1.524,0.353
			c1.826,0.44,2.515,1.112,2.515,2.438c0,1.636-1.55,2.756-3.763,2.756c-2.136,0-3.575-1.094-3.713-2.748h1.843
			c0.13,0.87,0.827,1.336,1.956,1.336c1.11,0,1.809-0.457,1.809-1.181c0-0.559-0.345-0.861-1.292-1.102l-1.619-0.396
			c-1.636-0.396-2.463-1.231-2.463-2.489C103.593,15.71,105.03,14.616,107.141,14.616z"/>
		<path id="XMLID_84_" class="st0" d="M112.285,12.334c0-0.595,0.482-1.068,1.076-1.068c0.603,0,1.085,0.473,1.085,1.068
			c0,0.586-0.482,1.059-1.085,1.059C112.767,13.393,112.285,12.919,112.285,12.334z M112.431,14.719h1.86v9.061h-1.86V14.719z"/>
		<path id="XMLID_82_" class="st0" d="M122.304,17.837c-0.164-0.955-0.913-1.671-2.136-1.671c-1.43,0-2.377,1.198-2.377,3.083
			c0,1.929,0.955,3.093,2.394,3.093c1.154,0,1.912-0.578,2.119-1.628h1.791c-0.207,1.904-1.732,3.179-3.927,3.179
			c-2.584,0-4.272-1.766-4.272-4.643c0-2.816,1.688-4.642,4.255-4.642c2.325,0,3.772,1.464,3.927,3.229H122.304z"/>
	</g>
	<g>
		<path class="st0" d="M34.243,5.931h-2.308l-0.559,1.606h-0.965l2.186-6.055h1.012l2.187,6.055h-0.999L34.243,5.931z M32.173,5.142
			h1.83l-0.877-2.56h-0.071L32.173,5.142z"/>
		<path class="st0" d="M36.866,2.968h0.869v0.726h0.067c0.222-0.508,0.675-0.813,1.363-0.813c1.02,0,1.582,0.612,1.582,1.699v2.958
			h-0.902V4.806c0-0.734-0.318-1.1-0.986-1.1c-0.667,0-1.091,0.445-1.091,1.158v2.673h-0.902V2.968z"/>
		<path class="st0" d="M42.179,1.185h0.895v2.518h0.071c0.222-0.512,0.704-0.818,1.393-0.818c0.974,0,1.573,0.617,1.573,1.704v2.949
			h-0.901V4.81c0-0.729-0.34-1.099-0.979-1.099c-0.738,0-1.149,0.465-1.149,1.157v2.669h-0.902V1.185z"/>
		<path class="st0" d="M47.275,5.25c0-1.473,0.822-2.37,2.157-2.37c1.33,0,2.152,0.897,2.152,2.37c0,1.481-0.818,2.375-2.152,2.375
			C48.093,7.625,47.275,6.732,47.275,5.25z M47.976,1.781c0-0.319,0.243-0.566,0.562-0.566c0.314,0,0.558,0.247,0.558,0.566
			s-0.243,0.562-0.558,0.562C48.219,2.343,47.976,2.1,47.976,1.781z M50.658,5.25c0-0.99-0.445-1.569-1.226-1.569
			c-0.785,0-1.226,0.579-1.226,1.569c0,0.999,0.44,1.574,1.226,1.574C50.212,6.825,50.658,6.245,50.658,5.25z M49.768,1.781
			c0-0.319,0.247-0.566,0.562-0.566c0.315,0,0.559,0.247,0.559,0.566s-0.243,0.562-0.559,0.562
			C50.015,2.343,49.768,2.1,49.768,1.781z"/>
		<path class="st0" d="M52.79,2.968h0.869v0.701h0.067c0.13-0.449,0.638-0.776,1.233-0.776c0.134,0,0.306,0.013,0.402,0.037v0.89
			c-0.075-0.025-0.344-0.055-0.503-0.055c-0.685,0-1.167,0.433-1.167,1.074v2.698H52.79V2.968z"/>
		<path class="st0" d="M60.104,6.304c-0.206,0.818-0.936,1.321-1.98,1.321c-1.31,0-2.111-0.897-2.111-2.357
			c0-1.461,0.818-2.388,2.106-2.388c1.271,0,2.04,0.868,2.04,2.304v0.314h-3.228v0.051c0.029,0.801,0.495,1.309,1.217,1.309
			c0.546,0,0.919-0.197,1.087-0.554H60.104z M56.931,4.831h2.309c-0.021-0.718-0.458-1.184-1.125-1.184S56.982,4.117,56.931,4.831z"
			/>
		<path class="st0" d="M61.364,2.968h0.869v0.726H62.3c0.222-0.508,0.675-0.813,1.363-0.813c1.02,0,1.582,0.612,1.582,1.699v2.958
			h-0.902V4.806c0-0.734-0.318-1.1-0.986-1.1c-0.667,0-1.091,0.445-1.091,1.158v2.673h-0.902V2.968z"/>
		<path class="st0" d="M68.852,6.245c0-0.822,0.612-1.297,1.699-1.364L71.79,4.81V4.415c0-0.482-0.319-0.755-0.936-0.755
			c-0.504,0-0.853,0.185-0.953,0.508h-0.873c0.093-0.785,0.831-1.288,1.867-1.288c1.146,0,1.792,0.57,1.792,1.535v3.122h-0.868
			V6.896h-0.071c-0.273,0.457-0.772,0.718-1.372,0.718C69.494,7.614,68.852,7.08,68.852,6.245z M71.79,5.855V5.473l-1.116,0.071
			c-0.63,0.042-0.915,0.256-0.915,0.659c0,0.411,0.356,0.65,0.848,0.65C71.286,6.854,71.79,6.421,71.79,5.855z"/>
		<path class="st0" d="M77.947,7.537h-0.869V6.812h-0.071c-0.222,0.521-0.688,0.813-1.38,0.813c-1.012,0-1.574-0.616-1.574-1.69
			V2.968h0.902V5.7c0,0.738,0.298,1.091,0.961,1.091c0.73,0,1.129-0.432,1.129-1.149V2.968h0.902V7.537z"/>
		<path class="st0" d="M79.819,3.748h-0.751v-0.76h0.751V2.544c0-0.932,0.508-1.317,1.46-1.317c0.177,0,0.311,0.013,0.487,0.042
			v0.722c-0.088-0.017-0.248-0.034-0.398-0.034c-0.433,0-0.659,0.197-0.659,0.646v0.386h1.02v0.76h-1.007v3.789h-0.902V3.748z"/>
	</g>
	<g>
		<g>
			<linearGradient id="SVGID_1_" gradientUnits="userSpaceOnUse" x1="12.5817" y1="25.0658" x2="12.5817" y2="0.5424">
				<stop  offset="0" style="stop-color:#FA233B"/>
				<stop  offset="1" style="stop-color:#FB5C74"/>
			</linearGradient>
			<path class="st1" d="M25.163,7.871c0-0.301,0-0.601-0.002-0.902C25.16,6.717,25.157,6.464,25.15,6.21
				c-0.015-0.551-0.047-1.107-0.145-1.653c-0.099-0.554-0.262-1.069-0.518-1.572c-0.252-0.494-0.58-0.946-0.972-1.338
				c-0.392-0.392-0.844-0.721-1.338-0.972c-0.503-0.256-1.018-0.418-1.571-0.518c-0.545-0.098-1.102-0.131-1.653-0.145
				c-0.253-0.007-0.506-0.01-0.759-0.011C17.893,0,17.592,0,17.292,0h-9.42C7.571,0,7.27,0,6.97,0.002
				C6.717,0.003,6.464,0.006,6.21,0.013C5.659,0.028,5.103,0.06,4.557,0.158C4.004,0.258,3.489,0.42,2.986,0.676
				C2.492,0.928,2.04,1.256,1.648,1.648C1.256,2.04,0.928,2.492,0.676,2.986C0.42,3.489,0.258,4.004,0.158,4.558
				C0.06,5.103,0.028,5.659,0.013,6.21C0.006,6.464,0.003,6.717,0.002,6.97C0,7.27,0,7.571,0,7.871v9.42
				c0,0.301,0,0.601,0.002,0.902c0.002,0.253,0.004,0.506,0.011,0.759c0.015,0.551,0.047,1.107,0.145,1.653
				c0.099,0.554,0.262,1.069,0.518,1.572c0.252,0.494,0.58,0.946,0.972,1.338c0.392,0.392,0.844,0.721,1.338,0.972
				c0.503,0.256,1.018,0.418,1.571,0.518c0.545,0.098,1.102,0.131,1.653,0.145c0.253,0.007,0.506,0.01,0.759,0.011
				c0.301,0.002,0.601,0.002,0.902,0.002h9.42c0.301,0,0.601,0,0.902-0.002c0.253-0.002,0.506-0.004,0.759-0.011
				c0.551-0.015,1.108-0.047,1.653-0.145c0.553-0.099,1.068-0.262,1.571-0.518c0.494-0.252,0.946-0.58,1.338-0.972
				c0.392-0.392,0.72-0.844,0.972-1.338c0.256-0.503,0.418-1.018,0.518-1.572c0.098-0.545,0.13-1.101,0.145-1.653
				c0.007-0.253,0.01-0.506,0.011-0.759c0.002-0.301,0.002-0.601,0.002-0.902V7.871z"/>
		</g>
		<g id="Glyph_21_">
			<g>
				<path class="st2" d="M17.789,3.844c-0.061,0.005-0.601,0.101-0.666,0.115L9.644,5.468L9.641,5.468
					c-0.195,0.042-0.348,0.11-0.466,0.21c-0.143,0.12-0.222,0.289-0.252,0.486C8.917,6.206,8.906,6.291,8.906,6.417
					c0,0,0,7.641,0,9.36c0,0.218-0.017,0.432-0.166,0.612c-0.148,0.181-0.331,0.236-0.546,0.279
					c-0.163,0.033-0.326,0.066-0.488,0.098c-0.618,0.125-1.02,0.209-1.384,0.35c-0.348,0.135-0.609,0.307-0.816,0.525
					c-0.411,0.431-0.579,1.016-0.521,1.564c0.049,0.467,0.26,0.915,0.621,1.246c0.244,0.223,0.548,0.393,0.908,0.466
					c0.373,0.075,0.77,0.049,1.349-0.068c0.309-0.062,0.598-0.16,0.874-0.322c0.272-0.161,0.506-0.375,0.688-0.637
					c0.183-0.262,0.302-0.554,0.367-0.863c0.067-0.319,0.084-0.608,0.084-0.927V9.981c0-0.435,0.123-0.55,0.474-0.634
					c0,0,6.217-1.254,6.506-1.31c0.405-0.078,0.595,0.038,0.595,0.462l0,5.542c0,0.22-0.002,0.441-0.151,0.624
					c-0.148,0.181-0.332,0.236-0.546,0.279c-0.163,0.033-0.326,0.066-0.488,0.099c-0.618,0.125-1.02,0.209-1.384,0.35
					c-0.348,0.135-0.609,0.307-0.816,0.525c-0.411,0.431-0.594,1.016-0.536,1.564c0.049,0.468,0.274,0.915,0.635,1.246
					c0.244,0.223,0.548,0.389,0.908,0.461c0.373,0.075,0.77,0.049,1.349-0.068c0.309-0.062,0.598-0.155,0.874-0.318
					c0.272-0.161,0.506-0.375,0.688-0.637c0.183-0.262,0.301-0.554,0.367-0.863c0.067-0.319,0.07-0.608,0.07-0.927V4.506
					C18.421,4.075,18.194,3.809,17.789,3.844z"/>
			</g>
		</g>
	</g>
</g>
</svg>
